<svg xmlns="http://www.w3.org/2000/svg" aria-hidden="true" style="position:absolute;width:0;height:0;overflow:hidden"><defs><symbol id="icon-github-logo" viewBox="0 0 32 32"><path d="M16 0c8.837 0 16 7.344 16 16.405 0 7.246-4.579 13.394-10.933 15.565-.811.162-1.099-.35-1.099-.787 0-.541.019-2.307.019-4.502 0-1.53-.512-2.528-1.086-3.037 3.563-.406 7.307-1.794 7.307-8.094 0-1.792-.621-3.254-1.648-4.403.166-.414.715-2.083-.157-4.342 0 0-1.341-.44-4.395 1.682A15.023 15.023 0 0 0 16 7.935c-1.36.006-2.728.189-4.005.552-3.058-2.122-4.402-1.682-4.402-1.682-.869 2.259-.32 3.928-.155 4.342-1.022 1.149-1.648 2.611-1.648 4.403 0 6.285 3.736 7.693 7.29 8.107-.458.41-.872 1.133-1.016 2.194-.912.419-3.229 1.144-4.656-1.363 0 0-.846-1.576-2.453-1.691 0 0-1.56-.021-.109.997 0 0 1.048.504 1.776 2.4 0 0 .939 2.928 5.39 1.936.008 1.371.022 2.664.022 3.054 0 .434-.294.941-1.093.789C4.583 29.805-.001 23.655-.001 16.407c0-9.061 7.165-16.405 16-16.405z"/></symbol><symbol id="icon-unknown-bordered" viewBox="0 0 32 32"><path d="M17.5 22.5a1.5 1.5 0 1 1-3.001-.001 1.5 1.5 0 0 1 3.001.001zM17 19h-2v-4h2a2 2 0 1 0 0-4h-2a2.002 2.002 0 0 0-2 2v.5h-2V13a4.005 4.005 0 0 1 4-4h2a4 4 0 0 1 0 8z"/><path d="M16 30h-.004a2.069 2.069 0 0 1-1.469-.609L2.61 17.474c-.377-.377-.609-.898-.609-1.473s.233-1.096.609-1.473L14.527 2.611c.377-.377.898-.609 1.473-.609s1.096.233 1.473.609L29.39 14.528c.377.377.609.898.609 1.473s-.233 1.096-.609 1.473L17.473 29.391a2.067 2.067 0 0 1-1.469.609H16zm0-26.001a.083.083 0 0 0-.059.024L4.024 15.94c-.015.015-.024.036-.024.059s.009.044.024.059l11.917 11.917c.015.015.036.024.059.024s.044-.009.059-.024l11.917-11.917c.015-.015.024-.036.024-.059s-.009-.044-.024-.059L16.059 4.023A.083.083 0 0 0 16 3.999z"/></symbol><symbol id="icon-unknown-filled" viewBox="0 0 32 32"><path d="M29.416 14.591 17.41 2.585c-.361-.361-.859-.584-1.41-.584s-1.049.223-1.41.584L2.583 14.591c-.361.361-.584.859-.584 1.41s.223 1.049.584 1.41L14.59 29.417c.361.361.859.584 1.41.584s1.049-.223 1.41-.584l12.007-12.006c.361-.361.584-.859.584-1.41s-.223-1.049-.584-1.41zM16 24a1.5 1.5 0 1 1 1.5-1.5A1.5 1.5 0 0 1 16 24zm1.125-6.752v1.877h-2.25V15H17a1.874 1.874 0 1 0 0-3.75h-2a1.877 1.877 0 0 0-1.875 1.875v.5h-2.25v-.5A4.13 4.13 0 0 1 15 9h2a4.125 4.125 0 0 1 .132 8.248h-.006z"/></symbol><symbol id="icon-scissors1" viewBox="0 0 32 32"><path fill="#f5ba3d" d="M20.834 21.795c-.074 0-.147.002-.22.005a1.038 1.038 0 0 1-1.087-1.037v-2.868a.544.544 0 0 0-.632-.537l-2.894.472v8.725c0 2.656 2.113 4.87 4.768 4.904a4.833 4.833 0 1 0 .065-9.664zm0 7.153a2.32 2.32 0 1 1 0-4.64 2.32 2.32 0 0 1 0 4.64z" style="fill:var(--color1, #f5ba3d)"/><path fill="#ef9325" d="M20.834 21.795c-.074 0-.147.002-.22.005a1.038 1.038 0 0 1-1.087-1.037v-2.868a.544.544 0 0 0-.632-.537l-.587.096a.541.541 0 0 1 .227.441v2.868c0 .593.495 1.064 1.087 1.037a4.832 4.832 0 0 1 .717 9.633 4.833 4.833 0 1 0 .496-9.638z" style="fill:var(--color2, #ef9325)"/><path fill="#f5ba3d" d="M13.105 17.358a.544.544 0 0 0-.632.537v2.868c0 .593-.495 1.064-1.087 1.037a4.832 4.832 0 1 0-.155 9.659c2.656-.034 4.768-2.248 4.768-4.904V17.83l-2.894-.472zm-1.939 11.59a2.32 2.32 0 1 1 0-4.64 2.32 2.32 0 0 1 0 4.64z" style="fill:var(--color1, #f5ba3d)"/><path fill="#f47d20" d="M10.039 22.275c.074 0 .147.002.22.005.388.018.734-.18.926-.484h-.019c-.89 0-1.723.242-2.439.662a4.817 4.817 0 0 1 1.312-.182z" style="fill:var(--color3, #f47d20)"/><path fill="#ef9325" d="M13.105 17.358a.544.544 0 0 0-.632.537v.023l2.398.392v8.725a4.93 4.93 0 0 1-2.426 4.25c2.057-.574 3.553-2.495 3.553-4.73V17.83l-2.894-.472z" style="fill:var(--color2, #ef9325)"/><path fill="#d1d3d4" d="m15.33 17.722-2.222-.363L15.999.54h.617c.639 0 1.158.518 1.158 1.158v13.305a3.622 3.622 0 0 0-2.444 2.719z" style="fill:var(--color4, #d1d3d4)"/><path fill="#bcbec0" d="M17.773 8.206 16.459.54h-.46l-2.267 13.187v1.903c.735.229 1.389.65 1.908 1.201a3.605 3.605 0 0 1 2.133-1.827V8.207z" style="fill:var(--color5, #bcbec0)"/><path fill="#e6e7e8" d="m16.67 17.722 2.215-.362L16.001.54h-.617c-.639 0-1.158.518-1.158 1.158v13.305a3.622 3.622 0 0 1 2.444 2.719z" style="fill:var(--color6, #e6e7e8)"/><path fill="#939598" d="M16.838 13.615a.54.54 0 1 1-1.08 0 .54.54 0 0 1 1.08 0z" style="fill:var(--color7, #939598)"/><path d="M20.834 23.769c-1.577 0-2.859 1.283-2.859 2.859s1.283 2.859 2.859 2.859c1.577 0 2.859-1.283 2.859-2.859s-1.283-2.859-2.859-2.859zm0 4.639c-.982 0-1.78-.799-1.78-1.78s.799-1.78 1.78-1.78c.982 0 1.78.799 1.78 1.78s-.799 1.78-1.78 1.78z" style="fill:var(--color8, #000)"/><path d="M25.666 26.088a.54.54 0 0 0-.54.54c0 1.157-.454 2.242-1.277 3.055s-1.912 1.252-3.073 1.237c-2.336-.03-4.236-1.988-4.236-4.365V18.29l2.446-.395v2.868c0 .435.173.84.488 1.14s.729.456 1.164.436c1.1-.05 2.175.325 3.003 1.041a.54.54 0 0 0 .706-.816 5.368 5.368 0 0 0-3.759-1.303.498.498 0 0 1-.523-.498v-2.868a1.082 1.082 0 0 0-.717-1.019l-1.037-6.05v-9.13a1.7 1.7 0 0 0-1.697-1.697h-1.231c-.936 0-1.697.761-1.697 1.697V10.8l-1.045 6.078a1.08 1.08 0 0 0-.709 1.016v2.868a.495.495 0 0 1-.523.498 5.378 5.378 0 0 0-5.616 5.366c0 1.448.568 2.806 1.598 3.823a5.335 5.335 0 0 0 3.773 1.549h.072c2.089-.027 3.9-1.283 4.763-3.08.863 1.797 2.673 3.053 4.763 3.08h.072a5.33 5.33 0 0 0 3.773-1.549 5.33 5.33 0 0 0 1.598-3.823.54.54 0 0 0-.54-.54zM17.234 1.697v2.836l-.592-3.452a.618.618 0 0 1 .592.617zm-3.256 13.784a.504.504 0 0 0 .089.037c.553.172 1.133.678 1.249.778a4.202 4.202 0 0 0-.379.815l-1.205-.197.246-1.433zm1.481 11.075c0 2.376-1.9 4.334-4.236 4.365-1.159.015-2.249-.424-3.073-1.237s-1.277-1.898-1.277-3.055a4.298 4.298 0 0 1 4.488-4.289c.436.02.849-.135 1.164-.436s.488-.705.488-1.14l.005-2.872 2.441.398v8.266zm-.693-11.929V1.698c0-.341.277-.618.618-.618h.162l2.715 15.836-1.199.196a4.132 4.132 0 0 0-2.297-2.484z" style="fill:var(--color8, #000)"/><path d="M11.166 23.769c-1.577 0-2.859 1.283-2.859 2.859s1.283 2.859 2.859 2.859 2.859-1.283 2.859-2.859a2.862 2.862 0 0 0-2.859-2.859zm0 4.639c-.982 0-1.78-.799-1.78-1.78s.799-1.78 1.78-1.78 1.78.799 1.78 1.78-.799 1.78-1.78 1.78zM16.838 13.615a.54.54 0 1 1-1.08 0 .54.54 0 0 1 1.08 0zM25.73 24.597a.54.54 0 1 1-1.08 0 .54.54 0 0 1 1.08 0z" style="fill:var(--color8, #000)"/></symbol><symbol id="icon-scissors2" viewBox="0 0 32 32"><path fill="#b3b3b3" d="m18.156 15.313 1.524 3.68-.432 3.37L16 20.517l-.533-5.09z" style="fill:var(--color9, #b3b3b3)"/><path fill="#ccc" d="m16 10.108-.464 3.67-1.691 1.534-2.524-6.094A10.697 10.697 0 0 1 11.814 0l4.187 10.108z" style="fill:var(--color10, #ccc)"/><path fill="#b3b3b3" d="m16 10.108-.464 3.67-1.691 1.534-.928-2.241 2.155-5.204z" style="fill:var(--color9, #b3b3b3)"/><path fill="#ccc" d="M20.187 0a10.703 10.703 0 0 1 .492 9.219L16 20.517l-2.707 1.459-.973-2.984L20.187 0z" style="fill:var(--color10, #ccc)"/><path fill="#f7b239" d="M29.552 24.36a5.525 5.525 0 0 1-10.208 4.228l-3.343-8.071 4.748-1.967 1.235 2.981a5.524 5.524 0 0 1 7.568 2.828zm-1.924 3.431a3.443 3.443 0 1 0-6.362-2.635 3.443 3.443 0 0 0 6.362 2.635zM16 20.517l-3.343 8.071a5.524 5.524 0 1 1-2.64-7.056l1.235-2.981L16 20.518zm-5.267 7.274a3.443 3.443 0 1 0-6.362-2.635 3.443 3.443 0 0 0 6.362 2.635z" style="fill:var(--color11, #f7b239)"/><path fill="#e09b2d" d="M7.547 30.497a3.998 3.998 0 0 1-1.534-.306c-.993-.411-1.766-1.184-2.177-2.177s-.411-2.086 0-3.079c.411-.992 1.184-1.766 2.177-2.177s2.086-.411 3.079 0a4.028 4.028 0 0 1 2.177 5.256 4.03 4.03 0 0 1-3.722 2.483zm.006-6.887c-.371 0-.742.073-1.096.22-.706.293-1.256.843-1.549 1.549s-.293 1.485 0 2.191c.293.706.843 1.257 1.55 1.549s1.484.293 2.191 0 1.257-.843 1.549-1.549a2.866 2.866 0 0 0-2.645-3.96zM24.447 30.499a4.022 4.022 0 0 1-1.539-.308c-.993-.411-1.766-1.184-2.177-2.177s-.411-2.086 0-3.079c.411-.992 1.184-1.766 2.177-2.177s2.086-.411 3.079 0a4.028 4.028 0 0 1 2.177 5.256 3.993 3.993 0 0 1-2.177 2.177 4.009 4.009 0 0 1-1.54.308zm0-6.889c-.371 0-.742.073-1.096.22-.706.293-1.256.843-1.549 1.549s-.293 1.485 0 2.191c.293.706.843 1.257 1.55 1.549s1.484.293 2.191 0a2.845 2.845 0 0 0 1.549-1.549c.293-.706.293-1.484 0-2.191s-.843-1.257-1.549-1.549a2.863 2.863 0 0 0-1.096-.22z" style="fill:var(--color12, #e09b2d)"/><path fill="#666" d="M16.627 15.426a.58.58 0 1 1-1.16 0 .58.58 0 0 1 1.16 0z" style="fill:var(--color13, #666)"/></symbol><symbol id="icon-scissors3" viewBox="0 0 32 32"><path fill="#b3b3b3" d="m18.08 15.337 1.471 3.551L16 20.359z" style="fill:var(--color9, #b3b3b3)"/><path fill="#ccc" d="m16 10.315-2.08 5.022-2.436-5.881A10.326 10.326 0 0 1 11.959.56L16 10.314z" style="fill:var(--color10, #ccc)"/><path fill="#ccc" d="M20.041.559a10.328 10.328 0 0 1 .475 8.897L16 20.359l-3.551-1.471L20.041.559z" style="fill:var(--color10, #ccc)"/><path fill="#b3b3b3" d="m16 10.315-2.08 5.022-.896-2.162 2.08-5.022z" style="fill:var(--color9, #b3b3b3)"/><path fill="#f7b239" d="M29.078 24.068a5.332 5.332 0 0 1-9.852 4.08l-3.227-7.789 4.582-1.898 1.192 2.877a5.331 5.331 0 0 1 7.304 2.73zm-1.856 3.312a3.323 3.323 0 1 0-6.14-2.543 3.323 3.323 0 0 0 6.14 2.543z" style="fill:var(--color11, #f7b239)"/><path fill="#f7b239" d="m16 20.36-3.227 7.789a5.331 5.331 0 1 1-2.547-6.81l1.192-2.877L16 20.36zm-5.083 7.02a3.323 3.323 0 1 0-6.14-2.543 3.323 3.323 0 0 0 6.14 2.543z" style="fill:var(--color11, #f7b239)"/><path fill="#fff" d="M12.738 24.348a.56.56 0 0 1-.517-.774l1.065-2.57a.56.56 0 1 1 1.034.428l-1.065 2.57a.56.56 0 0 1-.517.346zM20.407 23.024a.558.558 0 0 1-.517-.346l-.75-1.81a.56.56 0 1 1 1.034-.428l.75 1.81a.56.56 0 0 1-.517.774z" style="fill:var(--color14, #fff)"/><path fill="#333" d="M9.333 22.522c-.958-.397-2.013-.397-2.971 0s-1.704 1.143-2.101 2.101a3.886 3.886 0 0 0 3.582 5.368 3.889 3.889 0 0 0 3.592-2.397c.397-.958.397-2.013 0-2.971s-1.143-1.704-2.101-2.101zm1.067 4.644a2.767 2.767 0 0 1-3.61 1.496 2.766 2.766 0 0 1-1.495-3.61 2.74 2.74 0 0 1 1.495-1.495c.341-.141.699-.212 1.057-.212s.716.071 1.057.212c.682.282 1.213.813 1.495 1.495s.282 1.433 0 2.114zM25.638 22.522c-.958-.397-2.013-.397-2.971 0s-1.704 1.143-2.101 2.101a3.886 3.886 0 0 0 3.582 5.368 3.889 3.889 0 0 0 3.592-2.397c.397-.958.397-2.013 0-2.971s-1.143-1.704-2.101-2.101zm1.067 4.644c-.282.682-.813 1.213-1.495 1.495s-1.433.282-2.114 0a2.766 2.766 0 0 1-1.495-3.61 2.74 2.74 0 0 1 1.495-1.495c.341-.141.699-.212 1.057-.212s.716.071 1.057.212c.682.282 1.213.813 1.495 1.495s.282 1.433 0 2.114z" style="fill:var(--color15, #333)"/><path fill="#333" d="M29.595 23.854a5.9 5.9 0 0 0-7.523-3.258l-.973-2.349a.56.56 0 0 0-.731-.303l-.514.213-1.168-2.82 2.347-5.666a10.838 10.838 0 0 0-.501-9.379.558.558 0 0 0-1.008.054L16 8.853 12.476.346a.56.56 0 0 0-1.008-.054 10.835 10.835 0 0 0-.501 9.379l2.347 5.666-1.168 2.82-.514-.213a.557.557 0 0 0-.731.303l-.973 2.349a5.898 5.898 0 0 0-7.523 3.258c-.602 1.454-.602 3.055 0 4.509s1.735 2.586 3.188 3.188a5.868 5.868 0 0 0 2.247.448 5.902 5.902 0 0 0 5.451-3.637L16 21.821l2.709 6.541a5.9 5.9 0 0 0 7.698 3.189c1.454-.602 2.586-1.735 3.188-3.188s.602-3.055 0-4.509zM18.82 18.585l-1.785.74 1.046-2.525.74 1.785zm-6.819-9.343a9.714 9.714 0 0 1-.073-7.295l3.466 8.368-1.474 3.559-1.919-4.632zm8.071-7.295a9.716 9.716 0 0 1-.073 7.296l-4.302 10.385-2.517-1.043 6.892-16.639zm-7.816 25.988c-.488 1.178-1.405 2.095-2.583 2.582s-2.475.488-3.652 0c-1.178-.488-2.095-1.405-2.583-2.582s-.488-2.475 0-3.652A4.778 4.778 0 0 1 9.673 21.7c.091.038.187.082.303.14a.563.563 0 0 0 .767-.287l.978-2.36 3.548 1.47-3.012 7.272zm16.305 0c-.488 1.178-1.405 2.095-2.583 2.582s-2.475.488-3.652 0a4.743 4.743 0 0 1-2.583-2.582l-3.012-7.272 3.034-1.257.514-.213.978 2.36a.56.56 0 0 0 .767.287 4.778 4.778 0 0 1 6.538 2.442 4.738 4.738 0 0 1 0 3.652z" style="fill:var(--color15, #333)"/><path fill="#333" d="M16.605 15.447a.56.56 0 1 1-1.12 0 .56.56 0 0 1 1.12 0z" style="fill:var(--color15, #333)"/></symbol><symbol id="icon-rock-dark" viewBox="0 0 32 32"><path d="M2.232 22.685a52.92 52.92 0 0 1-.385-.938c-.943-2.378.24-4.523 1.295-6.622l1.53-3.04a3.723 3.723 0 0 1 1.36-1.488l4.4-2.73 4.348-4.495c.263-.272.6-.471.979-.565l.014-.003 2.96-.715c1.433-.343 2.047-.288 2.51.37 1.602 2.275 2.675 4.148 4.102 6.415.777 1.235 2.572 4.072 2.685 4.26.345.58.205 1.065.192 1.73-.03 1.533.24 3.072.8 4.5.168.425.36.845.448 1.293.08.402-.027 2.96-.11 3.825-.067.703-1.727 3.325-2.322 3.642-.655.35-5.51 2.135-6.582 2.44s-5.723-.758-8.137-1.128c-1.492-.227-2.988-.457-4.48-.685-1.295-.198-2.582-.047-3.308-1.355a48.103 48.103 0 0 1-2.297-4.712z"/><path d="M7.835 28.75c1.493.227 2.987.457 4.48.685.777.12 1.787.31 2.835.505-.705-.835-1.758-1.825-2.463-2.66-.152-.18-.307-.367-.363-.598-.057-.245.008-.497.075-.74.215-.795.27-1.657.485-2.453-1.332.31-4.402.9-4.655.828-.28-.08-.508-.282-.725-.48-1.582-1.445-2.82-2.902-4.03-4.665-.143-.207-.288-.422-.34-.67-.05-.233-.013-.473.025-.705.09-.58.29-2.188.45-3.605l-.47.932c-1.053 2.1-2.235 4.245-1.29 6.623.125.315.252.628.385.938a46.846 46.846 0 0 0 2.417 4.948l-.125-.24c.723 1.31 2.013 1.16 3.308 1.358zM21.262 2.487c-.308-.362-.907-.292-1.538.282l-2.265 2.265a.69.69 0 0 0-.203.53l.242 4.625c.008.155.065.3.165.418.805.94 3.65 5.457 4.475 5.457.823 0 2.26-3.205 2.992-3.188.125.002.777.043 1.415.238.595.18.828-.637.705-1.217-.615-.975-1.442-2.283-1.907-3.022-1.422-2.258-2.492-4.125-4.082-6.388z"/><path d="M10.723 11.592c.832-.125 3.61-.598 4.133-.803 1.02-.402 1.92-2.117 2.515-3.04 0 0 .205 3.007 0 4.183-.142.818-.68 5.092-1.22 6.117l-3.265 5.44-4.797-4.797c-.407-.407-.668-.622-.815-1.2-.338-1.32-.95-3.268-.952-4.415s3.09-1.29 4.403-1.485zM16.79 5.185c-.32-.383-.41-.925-.3-1.41.093-.405.933-1.188 1.205-1.435l-1.922.465a2.063 2.063 0 0 0-.992.567l-.001.001-4.348 4.495s4.21-1.755 6.357-2.683zM29.02 19.365a11.271 11.271 0 0 1-.762-3.307l-.003-.04c-1.435.983-2.238 2.258-4.547 2.57-.613.082-1.56.198-2.157.355-.74.195-1.425.742-2.535.845-.79.075-2.782.017-2.483.462s2.087 1.343 2.532 1.705c.633.508 1.183 1.105 1.71 1.72.275.323.688 1.105 1.168 1.317.122.055.253.07.383.03.227-.067.41-.233.587-.39a23.559 23.559 0 0 1 5.599-3.694l.144-.061c.223-.102.462-.218.573-.438a.935.935 0 0 0 .07-.372c-.087-.235-.185-.468-.277-.703z"/><path d="M29.468 20.657a3.492 3.492 0 0 0-.135-.48.88.88 0 0 1-.335.462c-.575.44-2.793 1.117-5.232 3.255-1.593 1.395-1.595 1.582-1.938 3.12-.56 2.518-1.45 3.433-1.62 3.587.093-.01.175-.023.242-.043 1.075-.302 5.927-2.09 6.582-2.44.595-.317 2.255-2.94 2.322-3.643.085-.86.192-3.418.113-3.82z"/></symbol><symbol id="icon-rock-light" viewBox="0 0 32 32"><path fill="#66757f" d="M10.667 3.695s3.556-.956 4.444-.956 4.444.956 4.444.956 3.556 3.82 4.444 3.82c0 0 1.778 0 3.556 1.91s1.778 5.731 1.778 5.731 1.778 3.82 1.778 5.731-.889 3.82-1.778 4.776-4.444 1.91-4.444 1.91-.889 1.91-2.667 2.866c-5.333.956-8.889 0-8.889 0l-1.778-1.91s-6.222-.956-7.111-.956-3.556-3.82-3.556-4.776 0-3.82.889-6.686c1.778-2.866 2.667-3.82 2.667-3.82s-.889-1.909 0-3.82c1.778-1.91 5.333-2.866 5.333-2.866l.889-1.91z" style="fill:var(--color16, #66757f)"/><path fill="#99aab5" d="M11.03 3.991s3.229-.908 4.066-.908c.836 0 4.436 1.021 4.436 1.021s3.177 3.575 4.013 3.575c0 0 1.812-.04 3.485 1.759s1.518 4.993 1.518 4.993 1.674 3.596 1.674 5.395-.836 3.597-1.673 4.497c-.836.9-4.183 1.798-4.183 1.798s-.836 1.798-2.51 2.698c-5.02.9-8.366 0-8.366 0l-1.673-1.798s-5.856-.9-6.692-.9-3.347-3.597-3.347-4.497c0-.9 0-3.597.836-6.295 1.674-2.698 2.51-3.596 2.51-3.596s-1.056-1.46-.22-3.26c1.673-1.798 5.228-2.724 5.228-2.724l.898-1.759z" style="fill:var(--color17, #99aab5)"/><path fill="#ccd6dd" d="M11.352 4.722s3.02-.793 3.803-.793c.782 0 4.148.892 4.148.892s2.971 3.121 3.753 3.121c0 0 1.694-.035 3.26 1.535s1.42 4.358 1.42 4.358.244 3.773.878 3.887c1.609.288.148 3.3-.634 4.085s-6.231 1.135-6.231 1.135.192 2.449-1.373 3.235c-4.694.785-6.724.219-6.724.219l-1.564-1.57s-3.813-3.642-4.596-3.642-4.794-.284-4.794-1.068 0-3.14.782-5.495c1.564-2.355 2.348-3.14 2.348-3.14s-.988-1.276-.205-2.845c1.564-1.57 4.889-2.378 4.889-2.378l.841-1.535z" style="fill:var(--color18, #ccd6dd)"/><path fill="#99aab5" d="m5.591 11.197 3.539 1.645-1.849 1.305-3.799.473z" style="fill:var(--color17, #99aab5)"/><path fill="#66757f" d="M1.42 19.539s1.004 3.348 1.268 3.745 3.644.114 4.066.114c.422 0 2.482 1.078 2.482 1.078s-2.746.738-3.696.624c-.95-.114-3.42-.557-3.644-1.192s-.476-4.369-.476-4.369z" style="fill:var(--color16, #66757f)"/><path fill="#e1e8ed" d="M6.489 8.531c.436-.138 3.432-1.419 4.066-1.362s3.327 1.588 2.693 2.1-4.119.114-5.122.114-2.535-.568-1.637-.852zm-2.112 6.865c.269-.508 3.855-.681 3.855-.681s4.647 1.873 4.647 2.156-4.224 2.213-4.647 2.269-4.067-3.348-3.855-3.745zm10.403 3.462c-.084-.449 1.796-3.178 2.165-3.404s5.333-1.532 6.178-1.532 3.538 1.986 3.591 2.383c.052.397-2.376 3.121-3.01 3.348s-8.766.057-8.924-.794zm4.752-7.491c-.2.477 4.753 1.135 5.281.908s1.478-1.759 1.32-2.156-1.69-1.532-2.482-1.419c-.793.115-3.644 1.533-4.119 2.668zm-3.907-6.979c.443.095 3.38.795 3.749 1.362s-1.742 2.326-2.324 2.383c-.58.057-4.541-2.383-4.964-2.667s2.745-1.249 3.538-1.078z" style="fill:var(--color19, #e1e8ed)"/><path fill="#66757f" d="M11.612 27.879c-.37-.567.212-2.44.528-2.213s1.268.908 1.32 1.476c.052.567 1.004 1.645 1.69 1.986s4.436.34 5.069.114c.634-.227 2.112-1.476 2.482-2.213s.796-.792 1.666-.907 1.708.75.523 1.452-2.452 1.951-3.931 2.235-6.284.511-7.129.171c-.845-.34-2.218-2.1-2.218-2.1z" style="fill:var(--color16, #66757f)"/><path fill="#99aab5" d="M17.956 23.781c-.445-.239-.612-2.218-.382-2.382s2.37.164 2.867.246c.497.082 3.516-.164 3.822.164s1.043 1.534 1.3 2.259c.257.725-1.414.616-2.064.452s-4.931-.41-5.542-.739zm-6.768-13.095c.58 0 3.01-.057 3.538 0s2.218 1.645 1.426 1.816c-.792.171-2.904.738-3.221.795s-1.478-1.021-1.848-1.305c-.369-.284-.527-1.306.106-1.306zm6.655-1.588c.293-.472 1.426-.624 1.478-.114s-.264 1.645-.898 1.588c-.634-.056-1.004-.794-.58-1.475zM14.78 21.07c.527-.063 1.532-.171 1.532.284s-.634.624-1.373.567c-.739-.056-.634-.794-.158-.851z" style="fill:var(--color17, #99aab5)"/><path fill="#e1e8ed" d="M12.72 14.772c.461-.396 2.06-.454 2.429-.284s-.422 1.362-.898 1.419c-.476.056-2.06-.682-1.532-1.135z" style="fill:var(--color19, #e1e8ed)"/><path fill="#66757f" d="M23.281 23.453c.527-.141 1.796-.284 1.742.114s-.58 1.135-1.004 1.078-1.161-1.078-.739-1.192zm-3.432 3.973c.583-.097 1.478-.567 1.426 0s-.686 1.305-1.373 1.192c-.686-.114-.739-1.079-.052-1.192z" style="fill:var(--color16, #66757f)"/></symbol><symbol id="icon-paper-sheet" viewBox="0 0 32 32"><path fill="#fbba00" d="M7.442 28.028 1.543 32h19.872l9.042-6.089h-5.899z" style="fill:var(--color20, #fbba00)"/><path fill="#f28e00" d="M24.558 21.938 7.442 24.055l-5.899 3.973h19.872l9.042-6.089z" style="fill:var(--color21, #f28e00)"/><path fill="#fbba00" d="M24.558 17.966 7.442 20.083l-5.899 3.972h19.872l9.042-6.089z" style="fill:var(--color20, #fbba00)"/><path fill="#fbba00" d="m28.166 16.037-6.751-8.018L28.166.001H8.294L1.543 8.019l6.751 8.018-6.751 8.018h19.872l5.126-6.089z" style="fill:var(--color20, #fbba00)"/><path fill="#fbdb80" d="m8.293 16.037-6.751 8.018h19.872l6.751-8.018zM21.415 8.018 28.166 0H8.294L1.543 8.018z" style="fill:var(--color22, #fbdb80)"/></symbol><symbol id="icon-paper" viewBox="0 0 32 32"><path fill="#58454d" d="M18.961 21.101c1.875-5.116 8.982-10.572 8.748-15.806-.114-2.183-2.475-2.431-4.221-2.399a79.609 79.609 0 0 0-7.698.201c-2.035.267-4.361.174-6.095 1.404-1.038.889-1.821 2.102-1.96 3.476-.019.108.03.156.12.147 1.334-.033 2.67-.024 4.003-.103.183-.008.171-.025.118.149-1.225 3.693-3.907 6.634-5.838 9.956-1.865 2.889-3.208 8.164.497 10.156 1.117.584 2.4.598 3.632.677 3.682.286 7.39.128 11.079.085 2.676-.013 4.424-2.618 5.446-4.805.158-.415.564-1.236-.138-1.33-1.678-.272-3.381-.346-5.065-.583a93.087 93.087 0 0 0-2.835-.322c-.198.011.187-.765.208-.903z" style="fill:var(--color23, #58454d)"/><path fill="#edd5b9" d="M7.956 7.819c.619-2.431 2.352-4.202 5.542-4.273 1.491-.387 10.269-.531 11.596-.239-1.785.654-3.01 2.202-3.632 3.914L7.956 7.82z" style="fill:var(--color24, #edd5b9)"/><path fill="#e6bc97" d="M12.335 7.819c-.178 2.495-8.835 12.912-7.749 16.32.364 2.591 1.385 3.973 3.009 4.363s13.207.274 13.207.274c-9.74-6.31 9.105-17.644 6.377-24.409-2.086-2.665-5.155 1.338-5.616 2.947l-9.228.505z" style="fill:var(--color25, #e6bc97)"/><path fill="#dba278" d="M19.072 19.754c.19-3.015 2.412-5.383 2.966-8.28.147-.897.12-1.848-.488-2.579-.436-.216-1.009-.173-1.494-.268-2.805-.301-5.7.093-8.287 1.232.298-.658.6-1.323.778-2.025.015-.065.048-.077.105-.08 2.014-.103 4.028-.215 6.041-.323.976-.054 1.792-.154 2.768-.209.205-.012.378-.105.399-.305 1.624-4.29 7.109-5.21 5.122.747-1.793 4.52-5.551 7.895-7.91 12.092zM5.607 26.926c1.397.818 3.133.593 4.683.5 2.736-.228 5.567-1.236 8.25-.493.344.692.854 1.261 1.46 1.723-.642.154-7.161-.006-7.456-.017-2.336-.366-5.222.3-6.938-1.713z" style="fill:var(--color26, #dba278)"/><path fill="#eccbad" d="M11.346 10.937c.288-.114-.407.858-.433.95-.535.792-.834 1.681-1.201 2.548-.453 1.451-.332 3.04-.995 4.43-.685 1.724-2.011 3.031-3.056 4.523-.511.877-.436 1.926-.313 2.894.005.044.02.097-.051.107-2.143-5.961 3.516-10.655 6.048-15.451z" style="fill:var(--color27, #eccbad)"/><path fill="#e4c39d" d="M18.472 22.459c.007.001 6.175.695 8.148.73.236.004-.436 1.207-.501 1.374-.98 2.319-3.843 5.542-6.405 3.345-1.96-1.71-1.515-5.427-1.242-5.45zM13.047 7.575a9.586 9.586 0 0 0 1.832-.446c1.225-.365 2.545-.593 3.573-1.406.818-.768 1.544-1.663 2.387-2.384 1.214-.012 2.384-.019 3.605.054-1.476.803-2.56 2.078-3.177 3.629-.023.066-.057.092-.125.095-.762.041-1.525.085-2.287.128-1.936.11-3.873.226-5.81.328z" style="fill:var(--color28, #e4c39d)"/><path fill="#eccbad" d="M8.381 21.4s-2.198 1.142-2.496 2.341c-.959 5.377 4.019.197 3.546-1.633-.447-.847-.681-.836-1.05-.709z" style="fill:var(--color27, #eccbad)"/><path fill="#58454d" d="m7.045 22.248.006-.002-.007-.001v.002zM9.242 22.046l.022.002.001-.002-.023.001zM8.104 24.362h-.009l.009.002v-.002z" style="fill:var(--color23, #58454d)"/><path fill="#58454d" d="M18.961 21.101c1.875-5.116 8.982-10.572 8.748-15.806-.114-2.183-2.475-2.431-4.221-2.399a79.609 79.609 0 0 0-7.698.201c-2.035.267-4.361.174-6.095 1.404-1.038.889-1.821 2.102-1.96 3.476-.019.108.03.156.12.147 1.334-.033 2.67-.024 4.003-.103.183-.008.171-.025.118.149-1.225 3.693-3.907 6.634-5.838 9.956-1.865 2.889-3.208 8.164.497 10.156 1.117.584 2.4.598 3.632.677 3.682.286 7.39.128 11.079.085 2.676-.013 4.424-2.618 5.446-4.805.158-.415.564-1.236-.138-1.33-.54-.087-7.791-.895-7.9-.905-.198.011.187-.765.208-.903zM8.312 7.627c.57-1.829 2.041-3.543 4.042-3.724 3.924-.439 7.872-.523 11.818-.385-1.46.715-2.3 2.084-3.021 3.408l-12.839.701zm11.602 15.101c1.446.124 2.883.336 4.33.44.712.055 1.424.115 2.138.127.107.002.059.058.045.104-.767 1.928-1.832 4.045-3.857 4.879-2.631 1.092-4.368-2.01-4.2-4.304.126-1.83-.124-1.317 1.543-1.247zm-1.542-1.559c-.678 1.82-.782 3.9.022 5.696.335.673.831 1.228 1.421 1.677-1.011.243-2.095.009-3.132.058-1.938-.039-3.884.013-5.812-.22-2.011-.059-4.504-.086-5.504-2.186-1.847-4.988 2.253-9.438 4.859-13.288.811-1.31 1.585-2.659 2.132-4.104.396-1.201.11-.721 1.529-.882 2.65-.142 4.923-.263 7.606-.414.376.001.295-.42.455-.653 1.706-4.148 6.726-4.425 4.804 1.04-1.894 4.942-6.391 8.396-8.38 13.274z" style="fill:var(--color23, #58454d)"/><path fill="#58454d" d="m8.147 24.684.002.001v-.001h-.002zM6.747 21.927zM21.904 11.633c1.947.698-3.31.064-9.329.277-.157.032-.549-.079-.238-.232 3.158-.392 6.391-.128 9.566-.045zM12.108 13.612c1.913.053 3.823.159 5.734.249.9.044 1.8.091 2.7.136.286-.032.363.415.049.415-.33-.015-12.654-.635-8.482-.8zM7.051 22.246c-.132-.026-1.086-.045-.676-.287.748-.105 7.924.383 7.931.384.213.046.708.009.776.242-.17.266-.975.09-1.286.117-3.251-.197-5.658-.338-6.746-.456z" style="fill:var(--color23, #58454d)"/><path fill="#58454d" d="M6.431 24.338c.311.003 6.854.071 7.015.541-.193.273-.687.1-.984.115-7.04-.534-4.532-.226-6.108-.489-.086-.02-.16-.048.078-.167zM12.225 15.893c1.04.006 2.047.064 3.055.081.139-.008.318.054.304.214-.018.274-.358.179-.545.185-1.643-.068-3.29-.096-4.928-.267-1.386-.299 1.934-.236 2.114-.213z" style="fill:var(--color23, #58454d)"/><path fill="#eccbad" d="M8.82 20.644c-.608-.071-.115-.813.255-.884.187-.075.232.098.265.246.105.284-.256.619-.52.638z" style="fill:var(--color27, #eccbad)"/></symbol><symbol id="icon-info" viewBox="0 0 32 32"><path d="M16 29.333C8.636 29.333 2.667 23.364 2.667 16S8.636 2.667 16 2.667 29.333 8.636 29.333 16 23.364 29.333 16 29.333zm-.928-4.712c.84 0 1.776-.384 2.928-1.944l1.215-1.627a.444.444 0 0 0-.098-.628l-.001-.001a.503.503 0 0 0-.673.079v.001l-1.967 2.239a.32.32 0 0 1-.374.08l.002.001a.282.282 0 0 1-.159-.328v.002l2.477-9.928a.665.665 0 0 0-.771-.816l.004-.001-4.467.817a.468.468 0 0 0-.367.341l-.001.003-.115.445a.333.333 0 0 0 .323.416h2.308l-1.968 7.896c-.072.312-.192.84-.192 1.224 0 .888.528 1.728 1.896 1.728zm2.44-14.048c.936 0 1.656-.552 1.848-1.392a2.49 2.49 0 0 0 .072-.552c0-.672-.528-1.296-1.512-1.296-.936 0-1.656.552-1.848 1.392a2.464 2.464 0 0 0-.072.55v.002c0 .672.528 1.296 1.512 1.296z"/></symbol><symbol id="icon-hand-scissors" viewBox="0 0 32 32"><path d="m16 30 4.375-.001c.32 0 .639-.036.95-.108l7.437-1.714c1.897-.437 3.237-2.113 3.237-4.035V11.286c0-1.49-.814-2.872-2.125-3.606l-6.125-3.428c-2.151-1.204-4.204-.364-5.764 1.546L8.927 2.313c-2.368-.911-5.038.233-5.978 2.575-.944 2.353.227 5.023 2.621 5.944l4.928 1.167-5.875-.571c-2.55 0-4.625 2.051-4.625 4.571s2.075 4.571 4.625 4.571H10.1a4.126 4.126 0 0 0 1.896 4.063c-.832 2.662 1.192 5.366 4.002 5.366zm0-3.001c-1.572 0-1.57-2.285 0-2.285a1 1 0 0 0 1-1v-.428a1 1 0 0 0-1-1h-1.75c-1.572 0-1.57-2.285 0-2.285H16a1 1 0 0 0 1-1v-.428a1 1 0 0 0-1-1H4.625c-2.152 0-2.148-3.143 0-3.143H16a1 1 0 0 0 1-1v-.727a1 1 0 0 0-.634-.931l-.007-.002-9.71-3.737c-1.972-.759-.84-3.705 1.201-2.92l10.409 4.006a.996.996 0 0 0 1.132-.299l.001-.002 1.36-1.665a1.225 1.225 0 0 1 1.53-.282l6.125 3.428c.364.204.591.582.591.988v12.856c0 .531-.375.988-.911 1.111l-7.438 1.714c-.083.02-.178.031-.276.031h-4.375z"/></symbol><symbol id="icon-hand-scissors-filled" viewBox="0 0 32 32"><path d="M13.5 27.5A2.5 2.5 0 0 1 16 25v-.5h-2a2.5 2.5 0 1 1 0-5h2V19H3a3 3 0 1 1 0-6h13v-.848L4.903 7.793a3 3 0 1 1 2.194-5.584l11.896 4.673 1.555-1.943a2.5 2.5 0 0 1 3.193-.609l7 4a2.503 2.503 0 0 1 1.26 2.171v15a2.5 2.5 0 0 1-1.927 2.434l-8.5 2a2.447 2.447 0 0 1-.572.066h-5a2.5 2.5 0 0 1-2.5-2.5z"/></symbol><symbol id="icon-hand-scissors-solid" viewBox="0 0 32 32"><path d="M11.406 6.969a6.363 6.363 0 0 0-1.938.281h-.031l-2.5.781a7.002 7.002 0 0 0-4.938 6.688V20c0 3.855 3.145 7 7 7h9.906c1.219.027 2.398-.688 2.875-1.875.301-.754.258-1.547-.031-2.25a3.012 3.012 0 0 0 1.406-1.531A2.986 2.986 0 0 0 23.092 19h3.906c1.645 0 3-1.355 3-3s-1.355-3-3-3h-1.531l.406-.125c1.574-.477 2.477-2.176 2-3.75s-2.176-2.477-3.75-2l-8.438 2.594a3.991 3.991 0 0 0-.281-.594c-.5-.836-1.512-1.781-3.125-2.063a5.85 5.85 0 0 0-.875-.094zM25.125 9a.992.992 0 0 1 .844.719c.164.539-.148 1.086-.688 1.25l-6.844 2.063.344 1.125v.844H27c.566 0 1 .434 1 1s-.434 1-1 1h-6.594l-2.625-1.031a2.94 2.94 0 0 0-1.156-.219l-.531-4.094 8.625-2.625a.96.96 0 0 1 .406-.031zm-13.75.031c.191 0 .391 0 .563.031 1.074.188 1.488.656 1.75 1.094s.281.75.281.75v.063l.844 6.438c.008.031.02.063.031.094a.95.95 0 0 1-.719 1.156c-.324.078-.488.035-.656-.063s-.375-.305-.531-.75L11.688 13a.998.998 0 0 0-1.437-.625l-1.656.906a.997.997 0 0 0-.391 1.359.997.997 0 0 0 1.359.391l.5-.281.969 3.688c.008.031.02.063.031.094.27.773.73 1.395 1.375 1.781a2.826 2.826 0 0 0 1.75.375 3.059 3.059 0 0 0-.75 1.094 2.971 2.971 0 0 0 .656 3.219H9c-2.773 0-5-2.227-5-5V14.72a4.999 4.999 0 0 1 3.531-4.781l2.5-.75c.203-.063.773-.156 1.344-.156zm5.438 8.75c.074.012.145 0 .219.031l3.719 1.5c.523.211.773.758.563 1.281s-.789.773-1.313.563l-3.719-1.469c-.055-.02-.078-.066-.125-.094a3.047 3.047 0 0 0 .656-1.813zm-.625 4.125c.133 0 .273.012.406.063l1.344.531 1.313.531.125.031c.523.211.773.789.563 1.313a.977.977 0 0 1-.875.625h-.031a1.045 1.045 0 0 1-.406-.063l-2.781-1.125a1.003 1.003 0 0 1-.563-1.313.955.955 0 0 1 .531-.531.92.92 0 0 1 .375-.063z"/></symbol><symbol id="icon-hand-rock" viewBox="0 0 32 32"><path d="M15 6a2.999 2.999 0 0 0-2.531 1.406A2.952 2.952 0 0 0 11 7c-1.645 0-3 1.355-3 3v3.656l-2.094 2.688c-1.277 1.652-1.191 4.023.188 5.594l2.375 2.688a6.98 6.98 0 0 0 5.25 2.375H19c3.855 0 7-3.145 7-7v-9c0-1.645-1.355-3-3-3-.535 0-1.031.156-1.469.406A2.998 2.998 0 0 0 19 7.001c-.535 0-1.031.156-1.469.406A2.998 2.998 0 0 0 15 6.001zm0 2c.566 0 1 .434 1 1v3h2v-2c0-.566.434-1 1-1s1 .434 1 1v2h2v-1c0-.566.434-1 1-1s1 .434 1 1v9c0 2.773-2.227 5-5 5h-5.281a4.967 4.967 0 0 1-3.75-1.688l-2.375-2.719a2.338 2.338 0 0 1-.094-3l.5-.656V18h2v-8c0-.566.434-1 1-1s1 .434 1 1v2h2V9c0-.566.434-1 1-1z"/></symbol><symbol id="icon-hand-rock-filled" viewBox="0 0 32 32"><path d="M29.05 5A3 3 0 0 0 26 8h-.5V6.05c0-1.644-1.306-3.019-2.95-3.05a3 3 0 0 0-3.05 3v2H19V5.05c0-1.644-1.306-3.019-2.95-3.05A3 3 0 0 0 13 5v3h-.5V6.05c0-1.644-1.306-3.019-2.95-3.05A3 3 0 0 0 6.5 6v8.5l-.5-.444V11.05C6 9.406 4.694 8.031 3.05 8A3 3 0 0 0 0 11v4.15a6.01 6.01 0 0 0 2.013 4.487l6.981 6.206A3.015 3.015 0 0 1 10 28.087v.419c0 .831.669 1.5 1.5 1.5h15c.831 0 1.5-.669 1.5-1.5v-.181c0-.8.163-1.594.469-2.331l3.063-7.269a5.966 5.966 0 0 0 .469-2.331V8.05c0-1.644-1.306-3.025-2.95-3.05z"/></symbol><symbol id="icon-hand-rock-bordered" viewBox="0 0 32 32"><path d="M25.554 4.941c-1.4-2.119-4.132-2.642-6.176-1.474-1.842-1.967-4.947-1.943-6.771-.001-2.947-1.689-6.794.316-6.917 3.8C2.802 6.588 0 8.751 0 11.715v3.56c0 2.046.892 3.997 2.449 5.352l6.107 5.318c.266.231.194.348.194 2.056a2 2 0 0 0 2 2H26.5a2 2 0 0 0 2-2c0-1.47-.063-1.922.249-2.648l2.677-6.229A7.01 7.01 0 0 0 32 16.339V9.186c0-3.302-3.395-5.541-6.446-4.244zM29 16.338v.003c0 .578-.121 1.127-.34 1.624l.01-.026-2.677 6.228a6.021 6.021 0 0 0-.493 2.391V27H11.75v-.643a3.55 3.55 0 0 0-1.224-2.676l-6.107-5.317A4.1 4.1 0 0 1 3 15.274v-3.56c0-2.075 3.25-2.096 3.25.042v2.577c0 .3.132.57.342.753l.001.001.438.381a1 1 0 0 0 1.657-.754V7.428c0-2.069 3.25-2.108 3.25.042v1.672a1 1 0 0 0 1 1h.438a1 1 0 0 0 1-1V6.571c0-2.071 3.25-2.105 3.25.042v2.529a1 1 0 0 0 1 1h.438a1 1 0 0 0 1-1V7.428c0-2.064 3.25-2.111 3.25.042v1.672a1 1 0 0 0 1 1h.438a1 1 0 0 0 1-1c0-2.072 3.25-2.101 3.25.042v7.153z"/></symbol><symbol id="icon-hand-rock-solid" viewBox="0 0 32 32"><path d="M15 6a2.999 2.999 0 0 0-2.531 1.406A2.952 2.952 0 0 0 11 7c-1.645 0-3 1.355-3 3v3.656l-2.094 2.688c-1.277 1.652-1.191 4.023.188 5.594l2.375 2.688a6.98 6.98 0 0 0 5.25 2.375H19c3.855 0 7-3.145 7-7v-9c0-1.645-1.355-3-3-3-.535 0-1.031.156-1.469.406A2.998 2.998 0 0 0 19 7.001c-.535 0-1.031.156-1.469.406A2.998 2.998 0 0 0 15 6.001zm0 2c.566 0 1 .434 1 1v3h2v-2c0-.566.434-1 1-1s1 .434 1 1v2h2v-1c0-.566.434-1 1-1s1 .434 1 1v9c0 2.773-2.227 5-5 5h-5.281a4.967 4.967 0 0 1-3.75-1.688l-2.375-2.719a2.338 2.338 0 0 1-.094-3l.5-.656V18h2v-8c0-.566.434-1 1-1s1 .434 1 1v2h2V9c0-.566.434-1 1-1z"/></symbol><symbol id="icon-hand-paper" viewBox="0 0 32 32"><path d="M25.286 7.04v-.677c0-2.726-2.532-4.793-5.19-4.097-1.602-3.094-5.881-2.966-7.374.047-2.58-.66-5.15 1.308-5.15 4.061v7.883a4.092 4.092 0 0 0-3.88.554c-1.835 1.362-2.237 3.958-.909 5.822l7.498 10.526a2 2 0 0 0 1.629.84h13.931a2 2 0 0 0 1.949-1.551l1.887-8.185c.206-.857.325-1.842.325-2.854v-8.223c0-2.539-2.22-4.5-4.714-4.147zM27 19.41c0 .733-.083 1.467-.248 2.18l-1.708 7.409h-12.62l-7.2-10.106c-.902-1.267.939-2.674 1.837-1.413l1.695 2.38c.562.789 1.814.393 1.814-.58V6.374c0-1.603 2.286-1.551 2.286.043v9.582a1 1 0 0 0 1 1h.428a1 1 0 0 0 1-1V4.186c0-1.604 2.286-1.551 2.286.043v11.769a1 1 0 0 0 1 1h.428a1 1 0 0 0 1-1v-9.68c0-1.604 2.286-1.551 2.286.043v9.636a1 1 0 0 0 1 1h.429a1 1 0 0 0 1-1v-4.769c0-1.64 2.286-1.603 2.286-.043v8.223z"/></symbol><symbol id="icon-hand-paper-filled" viewBox="0 0 32 32"><path d="M27.549 8C26.147 7.973 25 9.147 25 10.549V16h-.5V4.987c0-1.402-1.147-2.576-2.549-2.549a2.5 2.5 0 0 0-2.451 2.5v11.063H19V2.55c0-1.402-1.147-2.576-2.549-2.549A2.5 2.5 0 0 0 14 2.501v13.5h-.5V5.05c0-1.402-1.147-2.576-2.549-2.549a2.5 2.5 0 0 0-2.451 2.5V19.75l-1.978-2.72a2.499 2.499 0 1 0-4.043 2.941l7.85 10.794a3.002 3.002 0 0 0 2.426 1.236h12.349a3 3 0 0 0 2.92-2.313l1.657-7.041c.203-.826.319-1.773.319-2.748v-9.397a2.5 2.5 0 0 0-2.451-2.5z"/></symbol><symbol id="icon-hand-paper-solid" viewBox="0 0 32 32"><path d="M16 2c-1.383 0-2.531.969-2.875 2.25C12.773 4.105 12.402 4 12 4c-1.645 0-3 1.355-3 3v10.75l-.875-.875c-1.164-1.164-3.086-1.164-4.25 0s-1.164 3.086 0 4.25l6.781 6.781C11.832 29.078 13.457 30 15.375 30H20c3.855 0 7-3.145 7-7V11c0-1.645-1.355-3-3-3a2.93 2.93 0 0 0-1 .188V7c0-1.645-1.355-3-3-3-.402 0-.773.105-1.125.25C18.531 2.969 17.383 2 16 2zm0 2c.566 0 1 .434 1 1v10h2V7c0-.566.434-1 1-1s1 .434 1 1v8h2v-4c0-.566.434-1 1-1s1 .434 1 1v12c0 2.773-2.227 5-5 5h-4.625c-1.273 0-2.367-.621-3.281-1.531l-6.813-6.75c-.398-.398-.398-1.039 0-1.438s1.039-.398 1.438 0l2.563 2.594 1.719 1.719V7c0-.566.434-1 1-1s1 .434 1 1v8h2V5c0-.566.434-1 1-1z"/></symbol><symbol id="icon-rps-hands" viewBox="0 0 32 32"><path d="M27.796 11.148a1.59 1.59 0 0 0-2.117.749l-1.408 2.951v-3.61c0-.876-.712-1.587-1.587-1.587s-1.587.712-1.587 1.587v3.268a1.573 1.573 0 0 0-1.866.642l-.017-.01c.278-.467.483-1.005.491-1.603l-.318-3.148A1.523 1.523 0 0 0 17.9 8.889h-.011c-.015 0-.042 0-.079.005h-.011V5.433c0-.8-.619-1.461-1.407-1.508-.011 0-.037-.005-.074-.005a1.41 1.41 0 0 0-.608.132 1.482 1.482 0 0 0-1.296-.751h-.011c-.016 0-.048 0-.09.005a1.47 1.47 0 0 0-1.18.751 1.496 1.496 0 0 0-.63-.137c-.011 0-.042 0-.084.005a1.512 1.512 0 0 0-1.392 1.508v.412a1.446 1.446 0 0 0-.423-.064h-.011c-.021 0-.053 0-.116.011A1.495 1.495 0 0 0 9.122 7.3v6.583c-.562 0-1.055.294-1.337.735a1.586 1.586 0 0 0-2.116.529 1.589 1.589 0 0 0-2.367 1.381v4.853c0 1.032.374 2.005 1.058 2.766v.847a.53.53 0 0 0-.529.529v2.645a.53.53 0 0 0 1.058 0v-2.116h6.349v2.117a.53.53 0 0 0 1.058 0v-2.646a.53.53 0 0 0-.529-.529v-.839l.903-.903a.53.53 0 0 0 .127-.212.526.526 0 0 0 .077-.16l.902-3.414c.026-.097.042-.195.049-.292h3.038v2.207c0 .941.741 2.263 1.005 2.704v.909a.53.53 0 0 0-.529.529v2.646a.53.53 0 0 0 1.058 0v-2.116h6.35v2.117a.53.53 0 0 0 1.058 0v-2.645a.527.527 0 0 0-.476-.524v-.845l.903-.903a.53.53 0 0 0 .127-.212.524.524 0 0 0 .076-.16l.901-3.414a1.579 1.579 0 0 0-.87-1.851l2.077-4.352a1.59 1.59 0 0 0-.748-2.117zm-1.482 8.048-.867 3.286-.118.125-.914.968c-.009.01-.015.02-.023.03a.773.773 0 0 0-.037.048c-.01.014-.016.03-.024.045l-.023.046c-.007.017-.011.035-.016.052-.004.015-.01.031-.013.047l-.002.008-.003.047c-.001.013-.004.026-.004.04v1.058h-5.345v-1.058c0-.1-.029-.198-.081-.282a8.698 8.698 0 0 1-.728-1.453c-.117-.31-.195-.602-.195-.82v-1.242a1.597 1.597 0 0 0 .724.08 1.576 1.576 0 0 0 1.142-.722 1.575 1.575 0 0 0 1.804-.171c.196.206.449.364.745.443l1.25.309c-.153.388-.481.697-.931.877-1.541.615-1.559 2.377-1.559 2.451 0 .291.235.526.526.528h.003a.53.53 0 0 0 .529-.525c.001-.046.023-1.125.893-1.472.759-.303 1.331-.884 1.568-1.595l.158-.473a.53.53 0 0 0-.039-.423c-.007-.013-.017-.024-.025-.037a.529.529 0 0 0-.311-.222l-1.798-.444a.531.531 0 0 1-.374-.648.528.528 0 0 1 .071-.152.519.519 0 0 1 .578-.221l3.066.822c.023.006.044.016.066.025a.53.53 0 0 1 .307.625zm-13.562 0-.868 3.285-.118.125-.914.968c-.01.011-.017.023-.026.035l-.033.042c-.011.016-.018.033-.027.05-.007.014-.015.027-.021.041-.007.018-.012.037-.017.056-.004.014-.009.028-.011.042a.03.03 0 0 0-.002.009c-.003.017-.002.034-.004.051l-.003.036v1.058H5.416v-1.058a.528.528 0 0 0-.155-.374 3.06 3.06 0 0 1-.903-2.181v-1.242a1.573 1.573 0 0 0 1.866-.642 1.576 1.576 0 0 0 1.802-.169c.2.21.454.363.747.442l1.251.31-.04.121c-.112.337-.355.588-.651.673-1.424.408-1.801 1.836-1.801 2.534 0 .291.235.526.526.528a.542.542 0 0 0 .533-.525c.001-.05.025-1.231 1.033-1.52.199-.057.384-.15.554-.266a2.188 2.188 0 0 0 .809-1.089l.222-.664a.529.529 0 0 0 .025-.167.527.527 0 0 0-.4-.513l-.063-.016-.064-.016-1.67-.414a.532.532 0 0 1-.374-.647.553.553 0 0 1 .246-.321.526.526 0 0 1 .401-.052l3.066.822a.532.532 0 0 1 .305.223c.005.008.012.015.017.024a.527.527 0 0 1 .056.383c-.001.007-.001.014-.003.02zM4.888 16a.53.53 0 0 1 .529.529v2.117a.53.53 0 0 1-1.058 0v-2.117A.53.53 0 0 1 4.888 16zm3.703-.529a.53.53 0 0 1 1.058 0v1.248l-.064-.017c-.038-.01-.076-.017-.114-.025a1.568 1.568 0 0 0-.881.083v-1.289zm2.646 0a.53.53 0 0 1 .529.529v1.286l-1.058-.283v-1.002a.53.53 0 0 1 .529-.529zm-3.704 1.058v1.587a.53.53 0 0 1-1.058 0v-2.117a.53.53 0 0 1 1.058 0zm5.987 1.588a1.578 1.578 0 0 0-.695-.536V16a1.59 1.59 0 0 0-2.367-1.382 1.59 1.59 0 0 0-.279-.327V7.3c0-.238.19-.455.402-.455l.021-.006c.233 0 .423.186.423.408v4.036a.53.53 0 0 0 1.058 0v-5.85c0-.233.191-.45.402-.455h.021c.233 0 .423.185.423.407v5.588a.53.53 0 0 0 1.058 0V4.814c0-.233.191-.45.402-.455h.021c.233 0 .423.18.423.402v5.901a.53.53 0 0 0 1.058 0V5.385a.41.41 0 0 1 .418-.407h.026c.212.005.402.222.402.455v4.019a1.442 1.442 0 0 0-.313.968l.251 1.964c-.717.161-1.9.67-2.549 2.27a.53.53 0 0 0 .98.398c.675-1.662 2.096-1.684 2.153-1.684.153-.003.3-.062.402-.177s.149-.267.13-.42l-.313-2.444a.392.392 0 0 1 .127-.261c.006-.006.014-.01.021-.015a.449.449 0 0 1 .151-.08c.011-.003.023-.008.035-.01a.37.37 0 0 1 .066-.007h.001l.021-.002.011-.001c.207.011.413.241.413.464l.318 3.144c.004.411-.221.922-.62 1.446a1.59 1.59 0 0 0-1.163 1.528v1.587zm8.634-6.879a.53.53 0 0 1 1.058 0v5.481l-.064-.017a1.58 1.58 0 0 0-.994.058zm-3.594 4.774a.53.53 0 0 1 .419.517v2.117a.528.528 0 0 1-1.058 0v-2.117a.53.53 0 0 1 .639-.517zm2.535.518v1.587a.53.53 0 0 1-1.058 0V16a.53.53 0 0 1 1.058 0zm4.953-.493-.235.492-.375.786-.109-.029-.931-.25.242-.508.252-.529 1.741-3.648a.528.528 0 1 1 .955.456z"/></symbol><symbol id="icon-clenched-hand" viewBox="0 0 32 32"><path d="M16 6.16a2.95 2.95 0 0 0-2.491 1.384c-.43-.246-.918-.4-1.445-.4a2.968 2.968 0 0 0-2.952 2.952v3.598l-.123.154-.215.246a20.99 20.99 0 0 0-1.415 1.845l-.308.4a4.266 4.266 0 0 0-.799 1.814c-.015.073-.05.142-.062.215a4.356 4.356 0 0 0 1.045 3.475l2.337 2.644a6.868 6.868 0 0 0 5.166 2.337h5.197c3.794 0 6.888-3.094 6.888-6.888V11.08a2.968 2.968 0 0 0-2.952-2.952c-.527 0-1.015.154-1.445.4a2.952 2.952 0 0 0-2.491-1.384c-.527 0-1.015.154-1.445.4a2.952 2.952 0 0 0-2.491-1.384zm0 1.968c.557 0 .984.427.984.984v2.153A2.889 2.889 0 0 0 16 11.08h-.984V9.112c0-.557.427-.984.984-.984zm-3.936.984c.557 0 .984.427.984.984v.984h-1.384l-.277.277s-.223.227-.308.307v-1.568c0-.557.427-.984.984-.984zm7.872 0c.557 0 .984.427.984.984v2.952c0 .557-.427.984-.984.984s-.984-.427-.984-.984v-2.952c0-.557.427-.984.984-.984zm3.936.984c.557 0 .984.427.984.984v1.968c0 .557-.427.984-.984.984s-.984-.427-.984-.984V11.08c0-.557.427-.984.984-.984zm-11.378 2.952H16c.553 0 .984.431.984.984s-.43.984-.984.984h-3.075l-.277.369-2.306 2.921 1.538 1.23 1.814-2.275c.354.165.757.411 1.199.769 1.049.854 2.091 2.249 2.091 4.859h1.968c0-2.821-1.126-4.766-2.368-5.966a2.981 2.981 0 0 0 1.907-1.322c.43.246.919.4 1.445.4.753 0 1.445-.296 1.968-.769a2.936 2.936 0 0 0 1.968.769c.346 0 .673-.073.984-.185v4.121a4.905 4.905 0 0 1-4.92 4.92h-5.197a4.89 4.89 0 0 1-3.69-1.661l-2.337-2.675a2.29 2.29 0 0 1-.584-1.661c0-.008.027-.073.031-.092.004-.031-.004-.062 0-.092.046-.215.196-.63.523-1.168.042-.069.108-.146.154-.215l1.445-1.906a30.558 30.558 0 0 1 2.214-2.337z"/></symbol></defs></svg>